<?xml version="1.0" standalone="no"?><!DOCTYPE svg PUBLIC "-//W3C//DTD SVG 1.1//EN" "http://www.w3.org/Graphics/SVG/1.1/DTD/svg11.dtd"><svg t="1551940949054" class="icon" style="" viewBox="0 0 1024 1024" version="1.1" xmlns="http://www.w3.org/2000/svg" p-id="3156" xmlns:xlink="http://www.w3.org/1999/xlink" width="200" height="200"><defs><style type="text/css"></style></defs><path d="M384 298.666667v168.448c-72.597333-12.458667-128-75.861333-128-151.957334V298.666667h128m42.666667-42.666667H213.333333v59.157333A196.842667 196.842667 0 0 0 410.176 512H426.666667V256zM768 298.666667v16.490666c0 76.096-55.402667 139.477333-128 151.957334V298.666667h128m42.666667-42.666667H597.333333v256h16.490667A196.842667 196.842667 0 0 0 810.666667 315.157333V256zM597.333333 810.666667h-170.666666l42.666666-277.333334h85.333334z" fill="#FF8B00" p-id="3157"></path><path d="M341.333333 810.666667h341.333334v170.666666H341.333333z" fill="#1E1E1E" p-id="3158"></path><path d="M384 853.333333h256v85.333334H384z" fill="#2D2D2D" p-id="3159"></path><path d="M512 682.666667c-117.824 0-213.333333-95.509333-213.333333-213.333334V170.666667h426.666666v298.666666c0 117.824-95.509333 213.333333-213.333333 213.333334zM512 41.877333l13.653333 27.669334 30.528 4.437333-22.101333 21.525333 5.226667 30.4L512 111.552l-27.306667 14.357333 5.226667-30.4-22.101333-21.525333 30.528-4.437333zM395.626667 85.333333l10.048 20.373334 22.506666 3.264-16.277333 15.872 3.84 22.4-20.117333-10.581334-20.117334 10.581334 3.84-22.4-16.277333-15.872 22.485333-3.264zM630.293333 85.333333l10.048 20.373334 22.506667 3.264-16.277333 15.872 3.84 22.4-20.117334-10.581334-20.117333 10.581334 3.84-22.4-16.277333-15.872 22.485333-3.264z" fill="#FFC200" p-id="3160"></path></svg>