<?xml version="1.0" standalone="no"?><!DOCTYPE svg PUBLIC "-//W3C//DTD SVG 1.1//EN" "http://www.w3.org/Graphics/SVG/1.1/DTD/svg11.dtd"><svg t="1551945436269" class="icon" style="" viewBox="0 0 1024 1024" version="1.1" xmlns="http://www.w3.org/2000/svg" p-id="3920" xmlns:xlink="http://www.w3.org/1999/xlink" width="200" height="200"><defs><style type="text/css"></style></defs><path d="M 616.43 544.47 h -16 l 24.33 -24.34 a 36.64 36.64 0 0 0 0 -51.83 a 36.64 36.64 0 0 0 -51.82 0 l -61 61 l -61 -61 a 36.65 36.65 0 0 0 -51.83 0 a 36.65 36.65 0 0 0 0 51.83 l 24.34 24.34 h -16 a 36.64 36.64 0 0 0 -36.64 36.64 a 36.64 36.64 0 0 0 36.64 36.65 h 67.8 v 46.91 h -67.8 a 36.63 36.63 0 0 0 -36.64 36.64 A 36.64 36.64 0 0 0 407.54 738 h 67.8 v 52 a 36.65 36.65 0 0 0 73.29 0 v -52 h 67.8 a 36.64 36.64 0 0 0 36.64 -36.65 a 36.63 36.63 0 0 0 -36.64 -36.64 h -67.8 v -46.95 h 67.8 a 36.64 36.64 0 0 0 36.64 -36.65 a 36.64 36.64 0 0 0 -36.64 -36.64 Z" fill="#ffffff" p-id="3921"></path><path d="M 674.55 172.58 a 176 176 0 0 0 -325.1 0 c -145.82 63 -247.89 208.05 -247.89 377 C 101.56 776.24 285.32 960 512 960 s 410.44 -183.76 410.44 -410.44 c 0 -168.93 -102.07 -314.02 -247.89 -376.98 Z M 411.74 218 a 102.23 102.23 0 0 1 20.36 -42.47 q 2.26 -2.81 4.71 -5.45 a 102.84 102.84 0 0 1 32 -23.26 q 3.3 -1.53 6.72 -2.83 a 96.2203 96.2203 0 0 1 6.95 -2.36 c 2.36 -0.7 4.76 -1.33 7.18 -1.87 a 103.35 103.35 0 0 1 44.56 0 c 2.42 0.54 4.82 1.17 7.18 1.87 c 2.36 0.7 4.67 1.49 6.95 2.36 q 3.42 1.31 6.72 2.83 a 102.84 102.84 0 0 1 32 23.26 q 2.44 2.64 4.71 5.45 A 102.23 102.23 0 0 1 612.26 218 a 102.72 102.72 0 0 1 -30.38 97.0003 H 442.12 a 102.72 102.72 0 0 1 -30.38 -97.0003 Z M 512 895.87 c -191.26 0 -346.31 -155 -346.31 -346.31 c 0 -127.19 68.58 -238.36 170.76 -298.57 a 175.06 175.06 0 0 0 16.46 64 h -35.55 a 36.63 36.63 0 0 0 -36.64 36.64 a 36.64 36.64 0 0 0 36.64 36.65 h 389.28 a 36.64 36.64 0 0 0 36.64 -36.65 A 36.63 36.63 0 0 0 706.64 315 h -35.55 a 175.26 175.26 0 0 0 16.46 -64 c 102.18 60.2 170.76 171.37 170.76 298.56 c 0 191.26 -155.05 346.31 -346.31 346.31 Z" fill="#ffffff" p-id="3922"></path></svg>