<?xml version="1.0" standalone="no"?><!DOCTYPE svg PUBLIC "-//W3C//DTD SVG 1.1//EN" "http://www.w3.org/Graphics/SVG/1.1/DTD/svg11.dtd"><svg t="1551945460675" class="icon" style="" viewBox="0 0 1024 1024" version="1.1" xmlns="http://www.w3.org/2000/svg" p-id="4167" xmlns:xlink="http://www.w3.org/1999/xlink" width="200" height="200"><defs><style type="text/css"></style></defs><path d="M909.059178 954.73752 114.669646 954.73752c-27.420513 0-49.649793-22.229281-49.649793-49.64877L65.019853 110.699218c0-27.420513 22.229281-49.649793 49.649793-49.649793l397.194254 0 0 41.374316L139.495054 102.423741c-18.280342 0-33.099862 14.81952-33.099862 33.099862l0 744.739738c0 18.280342 14.81952 33.099862 33.099862 33.099862l744.739738 0c18.280342 0 33.099862-14.81952 33.099862-33.099862L917.334655 483.069087l41.374316 0 0 422.019663C958.708971 932.508239 936.479691 954.73752 909.059178 954.73752zM917.334655 134.86357 395.275555 656.921647l-29.256324-29.256324L891.261836 102.423741 702.187597 102.423741 702.187597 61.049424l215.147058 0 16.549931 0 24.824385 0 0 231.696989-41.374316 0L917.334655 134.86357z" p-id="4168" fill="#ffffff"></path></svg>