<?xml version="1.0" standalone="no"?><!DOCTYPE svg PUBLIC "-//W3C//DTD SVG 1.1//EN" "http://www.w3.org/Graphics/SVG/1.1/DTD/svg11.dtd"><svg t="1551787009393" class="icon" style="" viewBox="0 0 1024 1024" version="1.1" xmlns="http://www.w3.org/2000/svg" p-id="1097" xmlns:xlink="http://www.w3.org/1999/xlink" width="200" height="200"><defs><style type="text/css"></style></defs><path d="M317 856.1c-15.5 0-30.8-4.8-43.8-14-20.2-14.4-32-37.9-31.6-62.8l3.5-181.7L133 453.9c-15.3-19.5-20-45.4-12.5-69.1 7.5-23.7 26.2-42.2 49.9-49.4l173.9-52.9 102-151.1c13.9-20.6 37-33.1 61.9-33.3h0.6c24.6 0 47.7 12 61.8 32.3l104 149 0.5 0.4 174.8 49.9c23.9 6.8 42.9 25 50.8 48.6 7.9 23.6 3.6 49.5-11.4 69.3l-109.6 145 6.3 182.2c0.9 24.8-10.5 48.5-30.5 63.3-20 14.8-45.9 18.8-69.5 10.6l-171.7-59.5L343 851.5c-8.5 3.1-17.3 4.6-26 4.6zM509.5 173l-103 150.8c-9.6 14.3-24 25-40.6 30L192 406.6l111.6 144.5c10.7 13.6 16.3 30.7 16 47.9l-3.5 181.7L488 719.2c16.2-5.9 34.1-6.1 50.5-0.4l171.7 59.5-5.2-182.5c-0.6-17.3 4.8-34.4 15.2-48.1l109.6-145-175.3-51.3c-16.6-4.8-31.2-15.2-41.1-29.3L509.5 173z" p-id="1098" fill="#ffffff"></path></svg>