<?xml version="1.0" standalone="no"?><!DOCTYPE svg PUBLIC "-//W3C//DTD SVG 1.1//EN" "http://www.w3.org/Graphics/SVG/1.1/DTD/svg11.dtd"><svg t="1551721738243" class="icon" style="" viewBox="0 0 1024 1024" version="1.1" xmlns="http://www.w3.org/2000/svg" p-id="5979" xmlns:xlink="http://www.w3.org/1999/xlink" width="200" height="200"><defs><style type="text/css"></style></defs><path d="M511.974929 163.518191c8.577353 0 16.359596 4.574179 19.827581 11.646248l91.840708 186.44025c5.303796 10.770298 15.737426 18.281365 27.798113 20.034289l211.273844 30.740118c7.949043 1.14815 14.731516 6.468318 17.21508 13.458523 2.378164 6.78145 0.563842 14.223956-4.804423 19.439748l-154.799622 151.193491c-8.451486 8.263198-12.269441 19.993357-10.30981 31.510668l35.895535 209.68772c1.248434 7.303336-2.043542 14.564717-8.410554 18.863626-3.858888 2.589988-8.368598 3.923356-13.043061 3.923356-3.795443 0-7.554046-0.917906-10.790764-2.586918l-184.184883-97.03808c-5.445012-2.839675-11.475356-4.296863-17.506722-4.296863-6.012947 0-12.019755 1.461281-17.48728 4.296863l-183.978175 96.956216c-3.361561 1.750877-7.18054 2.672876-11.019984 2.672876-4.587482 0-9.181103-1.379417-12.790304-3.798513-6.575766-4.426823-9.890254-11.730159-8.617261-19.035542l35.889395-209.644741c1.963725-11.517311-1.876744-23.24747-10.328229-31.510668L148.819932 445.224154c-5.321192-5.186116-7.137561-12.606109-4.78191-19.313881 2.486634-7.063883 9.269108-12.384052 17.282618-13.532201l211.211423-30.740118c12.123109-1.7519 22.539342-9.268084 27.834952-20.034289l91.78238-186.399317C495.653195 168.100556 503.458975 163.518191 511.974929 163.518191M511.974929 127.438461c-22.702048 0-43.3626 12.491499-53.051263 32.063253L367.107517 345.941963l-211.214493 30.729885c-21.702278 3.122107-39.753399 17.673521-46.725184 37.448914-6.966669 19.875676-1.710968 41.767266 13.628392 56.688093l154.783249 151.204747-35.895535 209.644741c-3.650133 21.159926 5.699816 42.321898 24.040533 54.716182 10.103102 6.723122 21.915126 10.18599 33.765011 10.18599 9.723455 0 19.512403-2.337231 28.382421-6.930853l184.122461-96.996125 184.16544 96.996125c8.847505 4.593622 18.614963 6.930853 28.318976 6.930853 11.874445 0 23.686469-3.466961 33.783431-10.18599 18.346857-12.393261 27.675316-33.556257 24.044626-54.716182l-35.893488-209.644741 154.801668-151.204747c15.314801-14.934131 20.596084-36.81344 13.604856-56.688093-6.989181-19.775392-25.041326-34.326806-46.742581-37.448914l-211.214493-30.729885-91.822288-186.44025C555.423487 139.929959 534.720979 127.438461 511.974929 127.438461L511.974929 127.438461 511.974929 127.438461zM511.974929 127.438461" p-id="5980"></path></svg>