<?xml version="1.0" standalone="no"?><!DOCTYPE svg PUBLIC "-//W3C//DTD SVG 1.1//EN" "http://www.w3.org/Graphics/SVG/1.1/DTD/svg11.dtd"><svg t="1552319978471" class="icon" style="" viewBox="0 0 1024 1024" version="1.1" xmlns="http://www.w3.org/2000/svg" p-id="2434" xmlns:xlink="http://www.w3.org/1999/xlink" width="200" height="200"><defs><style type="text/css"></style></defs><path d="M912 585.2c0 18.6-6.6 34.6-19.6 47.5L633.3 892.4c-13.8 13-29.7 19.6-48.1 19.6-18.6 0-34.6-6.6-47.5-19.6l-377.6-378c-13.3-13-24.7-30.8-34.1-53.3-9.4-22.5-14-43-14-61.8V179.6c0-18.3 6.7-34.1 20.1-47.5 13.3-13.3 29.2-20.1 47.5-20.1h219.7c18.6 0 39.2 4.7 61.8 14 22.5 9.3 40.4 20.6 53.8 34.1l377.6 377c13 13.7 19.5 29.8 19.5 48.1zM328.9 328.9c13.2-13.2 19.8-29.1 19.8-47.7s-6.6-34.6-19.8-47.7c-13.2-13.2-29.1-19.8-47.7-19.8s-34.6 6.6-47.7 19.8-19.8 29.1-19.8 47.7 6.6 34.6 19.8 47.7c13.2 13.2 29.1 19.8 47.7 19.8 18.6-0.1 34.4-6.8 47.7-19.8z" p-id="2435" fill="#f4ea2a"></path></svg>