<?xml version="1.0" standalone="no"?><!DOCTYPE svg PUBLIC "-//W3C//DTD SVG 1.1//EN" "http://www.w3.org/Graphics/SVG/1.1/DTD/svg11.dtd"><svg t="1551945517856" class="icon" style="" viewBox="0 0 1025 1024" version="1.1" xmlns="http://www.w3.org/2000/svg" p-id="5776" xmlns:xlink="http://www.w3.org/1999/xlink" width="200.1953125" height="200"><defs><style type="text/css"></style></defs><path d="M832.853606 127.664595c35.373299 0 64.228848 28.759354 64.228848 64.024177l0 640.258141c0 35.261753-28.854526 64.024177-64.228848 64.024177l-513.791895 0-99.218388 0c19.941101-16.0063 34.995681-35.45005 34.995681-64.024177L254.839003 191.688772c0-35.264823 28.723536-64.024177 64.222708-64.024177L832.853606 127.664595M832.853606 63.636325l-513.791895 0c-70.996296 0-128.446439 57.33655-128.446439 128.052447l0 640.258141c0 38.013555-105.247998 28.508632-125.313948 102.040802-2.008846 7.689492 3.889773 26.011645 31.98804 26.011645 57.072524 0 184.389179 0 221.772347 0l513.791895 0c70.87247 0 128.452579-57.33655 128.452579-128.052447L961.306185 191.688772C961.305162 120.973898 903.726077 63.636325 832.853606 63.636325L832.853606 63.636325z" p-id="5777" fill="#ffffff"></path><path d="M447.50815 255.215598l0-42.518365c1.507402-12.87995 12.541219-20.006596 29.85332-21.508881 18.820527 0 34.748029 6.502399 36.131605 19.382349l0 44.644898 126.691384 0 0-40.329408c1.507402-14.44466 13.292362-22.195553 31.98804-23.698862 18.813364 1.502286 32.483343 9.253178 33.991769 23.698862l0 40.329408 104.993182 0c14.422146 1.437814 21.697179 15.192733 21.697179 33.886364-1.501262 18.695678-9.403612 28.701022-23.830875 30.138837l-104.615564 0 0 44.641828c0 11.443159-5.017511 17.944535-12.040798 19.382349l116.655339 0c15.803676 1.503309 23.830875 17.258887 23.830875 36.015966-2.883815 17.193392-12.287427 26.512065-28.098266 28.011281l-257.271519 0c-31.733224 34.452279-66.858871 50.51998-99.974648 82.158032l0 272.107101c-1.501262 18.50738-8.027199 28.635528-25.338277 30.137813-18.813364 0-37.377028-9.442499-38.885454-28.010258L383.285442 579.032841c-20.195917 18.696701-29.605668 21.571306-45.410367 8.628932-14.421123-18.695678-12.287427-42.454917 6.525937-58.211519 58.956521-44.580426 103.108162-81.90731 104.863216-82.158032l-106.494444 0c-14.427263-1.437814-22.205786-10.756487-23.707049-28.011281 0-18.696701 7.15223-34.575082 21.573353-36.015966l124.811481 0c-11.536284-2.813204-17.312101-15.065837-17.312101-32.3237l0-31.700477-103.107139 0c-15.804699-1.437814-24.464331-11.443159-25.965594-30.138837 0-18.693631 8.027199-32.448549 23.831898-33.886364L447.50815 255.215598zM640.183436 767.672015c1.377436-8.694427 0-64.027247 0-64.027247l-153.164562 0c-15.803676-1.499215-24.456145-15.131331-25.963547-33.889434 1.507402-18.693631 10.159871-28.635528 25.963547-30.135766l153.164562 0 34.870831-64.027247-136.09909 0c-15.804699-1.499215-22.330636-16.691948-23.838038-33.884317 0-18.696701 8.033339-28.701022 23.838038-30.138837l205.217529 0c14.421123 0 22.322449 17.257864 23.829851 30.138837 1.377436 11.500467-10.909991 23.818594-23.829851 33.884317l-38.010485 64.027247 102.859487 0c14.427263 1.500239 22.329612 11.443159 23.830875 30.135766-1.501262 18.758102-9.403612 32.390218-23.830875 33.889434l-102.859487 0c1.507402 7.126646 0 38.2039 0 61.21302-4.268415 31.512179-6.650786 51.769497-31.107954 60.398429-21.57847 8.629955-34.870831 6.439975-123.179229 6.439975-19.315831 0-28.098266-22.322449-28.098266-40.953655 1.501262-15.755578 12.293567-23.070522 32.359518-23.070522L640.183436 767.672015zM511.731881 383.514674c14.427263-23.070522 30.734429-47.956475 42.277877-47.956475 25.96457 1.502286 36.125465 24.947355 30.225822 47.956475l55.94888 0L640.18446 319.490497l-128.452579 0L511.731881 383.514674z" p-id="5778" fill="#ffffff"></path></svg>