<?xml version="1.0" standalone="no"?><!DOCTYPE svg PUBLIC "-//W3C//DTD SVG 1.1//EN" "http://www.w3.org/Graphics/SVG/1.1/DTD/svg11.dtd"><svg t="1556660324758" class="icon" style="" viewBox="0 0 1024 1024" version="1.1" xmlns="http://www.w3.org/2000/svg" p-id="4265" xmlns:xlink="http://www.w3.org/1999/xlink" width="32" height="32"><defs><style type="text/css"></style></defs><path d="M704.5 256.5L512 64 319.5 256.5H448V512h128V256.5z" fill="#2c2c2c" p-id="4266"></path><path d="M832 192h-63.4v64H832c35.3 0 64 28.7 64 64v384c0 35.3-28.7 64-64 64H192c-35.3 0-64-28.7-64-64V320c0-35.3 28.7-64 64-64h63.8v-64H192c-70.7 0-128 57.3-128 128v384c0 70.7 57.3 128 128 128h256v64H255.8v64h512v-64H576v-64h256c70.7 0 128-57.3 128-128V320c0-70.7-57.3-128-128-128z" fill="#2c2c2c" p-id="4267"></path></svg>