<?xml version="1.0" standalone="no"?><!DOCTYPE svg PUBLIC "-//W3C//DTD SVG 1.1//EN" "http://www.w3.org/Graphics/SVG/1.1/DTD/svg11.dtd"><svg t="1557454351182" class="icon" style="" viewBox="0 0 1024 1024" version="1.1" xmlns="http://www.w3.org/2000/svg" p-id="5019" xmlns:xlink="http://www.w3.org/1999/xlink" width="32" height="32"><defs><style type="text/css"></style></defs><path d="M899.024195 259.08766c-10.42466-21.808732-28.718907-38.252614-51.512218-46.302405l-90.001412-31.784391-3.102733-9.686729c-4.227248-13.1992-13.883775-24.068834-26.496053-29.823287L701.430825 129.412135c-7.331994-3.345355-15.436148-4.845378-23.470838-4.356109-5.454448-8.830004-13.715651-15.831792-23.329896-19.756015l-27.142372-11.075006c-6.65346-2.71615-13.732766-3.923216-20.780863-3.615157-5.928617-14.774729-18.685864-25.818526-34.166308-29.564558l-35.64519-8.624632c-4.867526-1.177871-9.859886-1.606737-14.859294-1.275523l-7.765894-10.311907c-7.015882-9.315247-17.143558-15.860987-28.517562-18.432168l-21.056706-4.7588c-10.663255-2.410105-21.985916-1.17183-31.880031 3.487303l-13.51934 6.368556c-11.101181 5.227934-19.689571 14.206934-24.415148 25.43899L359.922781 40.59262c-22.792304-8.048784-47.356448-6.741045-69.166186 3.684622-21.809738 10.425667-38.25362 28.719914-46.302405 51.513225l-94.974645 268.934086c-15.166345 42.944969 4.141676 89.838323 43.402023 110.333275 0.975519 7.216221 3.336294 14.266331 7.09944 20.702338l97.048503 165.950927c0.165103 0.404704 0.33826 0.806388 0.520478 1.207066-2.245002 13.161952-6.684669 37.228772-12.200527 67.132597-8.993094 48.753785-20.184881 109.427221-28.725954 159.993115-4.749739 28.125945-8.070932 49.49675-10.15083 65.335589-3.569855 27.179621-4.295705 39.387195 3.031256 50.833684 9.59109 14.987148 29.514222 19.359364 44.500363 9.767267 11.403199-7.297766 16.660329-20.577504 14.29754-33.113271 0.825516-26.540349 27.453451-170.891944 40.409023-241.129288 5.998081-32.519302 10.736746-58.203934 12.879061-71.113197 0.851691-5.133302 0.968472-10.338082 0.379536-15.455276 0.241615-5.950765-1.161763-12.032404-4.384297-17.542222l-99.775727-170.61308 47.044362-105.850319 10.221301-3.406765 100.340501 38.955309-26.98633 15.292186-39.454646 0c-14.897549 0-27.851108 10.214254-31.326331 24.700052-3.475222 14.485798 3.434953 29.465899 16.710665 36.224058l81.796586 41.642264 14.963993 28.503467c0.580882 1.901708 1.344988 3.77422 2.301378 5.596397 9.964586 18.979828 29.483013 30.035706 49.849104 29.906845l94.470275 33.361933-6.945411 16.976441-2.226881 2.969845c-7.936031 10.58171-11.870321 23.679231-11.077019 36.878431l19.46205 324.380594c1.026862 17.103289 15.215675 30.288395 32.126679 30.286381 0.649339 0 1.303712-0.020135 1.959091-0.059397 17.760681-1.066124 31.294115-16.327102 30.227991-34.08577l-19.274799-321.250679 1.004714-1.339954c2.856085-3.808449 5.217867-7.972273 7.015882-12.370664l8.552148-20.90469 53.696816 18.962714c9.859886 3.481263 20.046959 5.212833 30.202823 5.212833 13.322021-0.001007 26.588672-2.980919 38.96437-8.897455 21.808732-10.42466 38.252614-28.718907 46.301398-51.512218l94.974645-268.934086C910.759614 305.460535 909.450868 280.897398 899.024195 259.08766zM452.257787 83.193289l3.309112-1.558414 10.572649 2.38997 9.407866 12.491471c10.166938 13.498198 26.300748 20.78187 43.143295 19.501313l5.374917-0.410745 25.704766 6.219561 1.60875 4.061138c9.101821 22.982575 33.162601 35.310957 56.618338 29.973289l17.621753 7.191052 1.877546 3.132935c9.662568 16.12475 27.300428 25.248718 46.050723 23.821179l4.684302-0.357388 16.854627 7.688376 0.11678 0.364435-6.411846 13.285779-5.506798 3.442-16.242537-3.508444c-5.211827-8.141403-13.167992-14.369017-22.755055-17.408327-11.052858-3.505424-22.780223-2.294331-32.653197 3.013135l-18.530828-4.516178c-4.876587-10.544461-13.9623-18.708012-25.427916-22.363438-10.345129-3.299045-21.244964-2.480576-30.691086 1.966138l-27.185662-9.051484-0.16309-2.143322c-0.991626-12.991815-9.711897-24.108096-22.094642-28.163194-12.002202-3.93127-25.153079-0.479202-33.677039 8.740406l-16.564689-5.98298-2.472522-6.287011L452.257787 83.193289zM666.287992 327.459538l0.375509 0.100673c9.930357 2.667827 19.311041 5.187665 27.309489 8.070932 13.80827 4.975246 19.158019 9.510552 21.119123 11.770655 0.165103 0.190271 0.334233 0.376516 0.508397 0.558734 0.143962 0.151009 1.44868 1.651033 3.075552 7.850459 0.002013 0.007047 0.00302 0.014094 0.005034 0.020135 0.533565 5.698076-0.22752 12.043478-2.195672 18.111022-2.141309 6.628292-5.690022 12.435094-10.262577 16.793217-0.092619 0.087585-0.184231 0.177184-0.27383 0.267789-1.681234 1.680228-4.235301 2.838971-7.386358 3.351395-0.245641 0.040269-0.489269 0.084565-0.732897 0.136915-7.516225 1.578548-19.250638-0.474169-34.885111-6.107814-4.87256-1.755732-9.995794-3.904088-14.949899-5.980966-0.43692-0.183224-0.870819-0.365442-1.305725-0.54766L666.287992 327.459538zM446.418769 206.809323c4.210133 1.521165 8.567249 2.326547 12.912283 2.458428 4.456781 4.3249 9.905189 7.693409 16.063339 9.744113l34.705914 11.556222c-0.031209 0.036242-0.064431 0.070471-0.095639 0.10772-18.078807 21.700005-36.651917 43.705048-54.612938 64.985248-9.938411 11.774681-20.031858 23.735607-30.137386 35.75593l-8.115228-3.151056-1.923856-130.932927c-0.004027-0.278863-0.015101-0.55672-0.033222-0.834577-0.022148-0.33826-0.057383-0.671487-0.090605-1.00572L446.418769 206.809323zM297.625495 295.659039l-16.722746 5.574249c-14.8603 4.954105-27.032639 16.004949-33.395155 30.319603l-34.483427 77.588466c-4.297718-6.572922-5.60143-15.002249-2.790648-22.962441l94.974645-268.934086c2.318493-6.564868 7.055144-11.834078 13.337122-14.837146 3.565828-1.704389 7.385351-2.563127 11.222995-2.563127 2.924543 0 5.860159 0.499337 8.69913 1.502037l33.342805 11.774681-0.305038 0.795314c-0.063424 0.167117-0.125841 0.334233-0.187251 0.502357-3.517505 9.668608-3.38059 20.265419 0.383563 29.836374l9.327328 23.71648c0.546653 1.39029 1.16579 2.743332 1.849358 4.055097-5.090013 1.017801-9.777335 3.419852-13.416654 7.023936-5.10008 5.051757-7.839385 12.096834-7.514212 19.329162 0.021141 0.467121 0.062417 0.928202 0.121814 1.38425l1.466802 107.690616-28.014198-10.875674C323.410799 291.877772 309.952869 291.550586 297.625495 295.659039zM841.955849 306.798476l-94.974645 268.934086c-2.318493 6.564868-7.055144 11.834078-13.336115 14.837146-6.281978 3.001054-13.35927 3.378577-19.923131 1.06109l-225.355886-79.584806 0.248662-0.703702-1.073171 0.412758-0.112753-0.039262-15.488498-29.501134c-5.410152-10.305866-13.7529-18.544922-24.126218-23.826213l-5.555121-2.827897 11.443468-6.48433c13.065306-7.403472 22.7319-19.983535 26.524242-34.516649l2.068824-7.934017c4.535306-17.382152 0.364435-35.155921-10.008882-48.472908l78.583112-93.28133c0.287924-0.342287 0.562761-0.696655 0.820483-1.06109 3.3222-4.686315 5.010481-10.008882 5.142363-15.271045 2.619504 1.256396 5.393038 2.261109 8.297446 2.969845l0.915115 0.222487c-1.808082 2.236948-3.289985 4.836318-4.345035 7.76388l-68.583291 190.337886c-5.033636 13.966327 1.704389 28.755149 15.340509 33.669991 3.132935 1.128541 6.308153 1.665127 9.409879 1.665127 10.886748 0 20.851334-6.620238 24.76851-17.490879 0.001007 0 0.001007 0 0.001007-0.001007l68.583291-190.337886c1.812109-5.027596 2.062784-10.106534 0.986593-14.781776 3.789321 0.380543 7.59475 0.250675 11.311587-0.382556 4.571548 3.950398 10.021969 6.931317 16.063339 8.642753-0.321146 0.131881-0.641285 0.264769-0.957398 0.408731-6.452115 2.953738-11.343802 8.292412-13.772028 15.034464l0.001007-0.002013-66.241644 183.836442c-4.888667 13.569676 2.173524 28.588033 15.744207 33.478713 3.075552 1.108407 6.245736 1.659086 9.388738 1.659086 3.793348 0 7.54542-0.803368 11.038764-2.401044 6.327281-2.894341 11.30152-8.285365 13.644174-14.788823l20.40032-56.615318c5.365856 2.237955 10.906883 4.54034 16.57073 6.581982 16.160992 5.82291 40.284189 13.054232 63.088574 8.631679 0.900014-0.174164 1.77184-0.421819 2.607423-0.735918 11.404206-2.757426 22.797338-8.80685 31.027333-16.545562 11.101181-9.74814 20.113403-23.994336 24.77153-39.169742 7.068232-21.734234 8.082006-55.115294-12.277038-77.911625-0.079531-0.088592-0.159063-0.176177-0.240608-0.263763-10.146804-10.865607-23.951047-19.198288-43.444306-26.222224-5.480623-1.975199-11.382058-3.900061-18.02243-5.877273 5.923583-0.773166 11.661928-2.804742 16.861674-6.055464l18.696938-11.68911c6.75816-4.226241 12.206567-10.396472 15.647561-17.569403l81.943568 28.938374c6.564868 2.318493 11.835085 7.055144 14.838152 13.337122C843.896819 293.158329 844.274342 300.233608 841.955849 306.798476z" p-id="5020" fill="#f4ea2a"></path></svg>